{
  "accessors": [
    {
      "bufferView": 2,
      "componentType": 5126,
      "count": 2284,
      "max": [
        4.8642830848693848,
        5.4220089912414551,
        9.7303457260131836
      ],
      "min": [
        -4.8621659278869629,
        -5.7770519256591797,
        0.82505899667739868
      ],
      "type": "VEC3"
    },
    {
      "bufferView": 2,
      "byteOffset": 27408,
      "componentType": 5126,
      "count": 2284,
      "max": [
        1,
        1,
        1
      ],
      "min": [
        -1,
        -1,
        -1
      ],
      "type": "VEC3"
    },
    {
      "bufferView": 3,
      "componentType": 5126,
      "count": 2284,
      "max": [
        1,
        0.9999924898147583,
        0.99762344360351562,
        1
      ],
      "min": [
        -0.99945348501205444,
        -0.9999924898147583,
        -0.99760222434997559,
        -1
      ],
      "type": "VEC4"
    },
    {
      "bufferView": 1,
      "componentType": 5126,
      "count": 2284,
      "max": [
        0.99184101819992065,
        0.96569198369979858
      ],
      "min": [
        0.065550997853279114,
        0.028967000544071198
      ],
      "type": "VEC2"
    },
    {
      "bufferView": 0,
      "componentType": 5125,
      "count": 7992,
      "max": [
        2283
      ],
      "min": [
        0
      ],
      "type": "SCALAR"
    }
  ],
  "asset": {
    "extras": {
      "author": "Axel Rodríguez (https://sketchfab.com/Axel.Rodriguez)",
      "license": "CC-BY-4.0 (http://creativecommons.org/licenses/by/4.0/)",
      "source": "https://sketchfab.com/3d-models/daft-punk-thomas-helmet-c14093005c33447e95cbf5681069ec93",
      "title": "Daft Punk Thomas Helmet"
    },
    "generator": "Sketchfab-6.44.0",
    "version": "2.0"
  },
  "bufferViews": [
    {
      "buffer": 0,
      "byteLength": 31968,
      "byteOffset": 0,
      "name": "floatBufferViews",
      "target": 34963
    },
    {
      "buffer": 0,
      "byteLength": 18272,
      "byteOffset": 31968,
      "byteStride": 8,
      "name": "floatBufferViews",
      "target": 34962
    },
    {
      "buffer": 0,
      "byteLength": 54816,
      "byteOffset": 50240,
      "byteStride": 12,
      "name": "floatBufferViews",
      "target": 34962
    },
    {
      "buffer": 0,
      "byteLength": 36544,
      "byteOffset": 105056,
      "byteStride": 16,
      "name": "floatBufferViews",
      "target": 34962
    }
  ],
  "buffers": [
    {
      "byteLength": 141600,
      "uri": "scene.bin"
    }
  ],
  "images": [
    {
      "uri": "textures/thomas1lambert9SG_baseColor.png"
    },
    {
      "uri": "textures/thomas1lambert9SG_metallicRoughness.png"
    },
    {
      "uri": "textures/thomas1lambert9SG_emissive.png"
    },
    {
      "uri": "textures/thomas1lambert9SG_normal.png"
    }
  ],
  "materials": [
    {
      "doubleSided": true,
      "emissiveFactor": [
        1,
        1,
        1
      ],
      "emissiveTexture": {
        "index": 2,
        "texCoord": 0
      },
      "name": "thomas1lambert9SG",
      "normalTexture": {
        "index": 3,
        "scale": 1,
        "texCoord": 0
      },
      "pbrMetallicRoughness": {
        "baseColorFactor": [
          1,
          1,
          1,
          1
        ],
        "baseColorTexture": {
          "index": 0,
          "texCoord": 0
        },
        "metallicFactor": 1,
        "metallicRoughnessTexture": {
          "index": 1,
          "texCoord": 0
        },
        "roughnessFactor": 1
      }
    }
  ],
  "meshes": [
    {
      "primitives": [
        {
          "attributes": {
            "NORMAL": 1,
            "POSITION": 0,
            "TANGENT": 2,
            "TEXCOORD_0": 3
          },
          "indices": 4,
          "material": 0,
          "mode": 4
        }
      ]
    }
  ],
  "nodes": [
    {
      "children": [
        1
      ],
      "name": "RootNode (gltf orientation matrix)",
      "rotation": [
        -0.70710678118654746,
        -0,
        -0,
        0.70710678118654757
      ]
    },
    {
      "children": [
        2
      ],
      "name": "RootNode (model correction matrix)"
    },
    {
      "children": [
        3
      ],
      "name": "6f501bbedcd64864ba6fc522a3af76fb.obj.cleaner.materialmerger.gles"
    },
    {
      "mesh": 0,
      "name": ""
    }
  ],
  "samplers": [
    {
      "magFilter": 9729,
      "minFilter": 9987,
      "wrapS": 10497,
      "wrapT": 10497
    }
  ],
  "scene": 0,
  "scenes": [
    {
      "name": "OSG_Scene",
      "nodes": [
        0
      ]
    }
  ],
  "textures": [
    {
      "sampler": 0,
      "source": 0
    },
    {
      "sampler": 0,
      "source": 1
    },
    {
      "sampler": 0,
      "source": 2
    },
    {
      "sampler": 0,
      "source": 3
    }
  ]
}

