{
  "accessors": [
    {
      "bufferView": 2,
      "componentType": 5126,
      "count": 5322,
      "max": [
        26.031312942504883,
        12.82088565826416,
        57.800910949707031
      ],
      "min": [
        -24.045003890991211,
        -16.418119430541992,
        0.046822000294923782
      ],
      "type": "VEC3"
    },
    {
      "bufferView": 2,
      "byteOffset": 63864,
      "componentType": 5126,
      "count": 5322,
      "max": [
        0.99716663360595703,
        0.99661362171173096,
        1
      ],
      "min": [
        -0.99985647201538086,
        -0.99856197834014893,
        -1
      ],
      "type": "VEC3"
    },
    {
      "bufferView": 3,
      "componentType": 5126,
      "count": 5322,
      "max": [
        0.99988102912902832,
        0.99984484910964966,
        0.99989157915115356,
        1
      ],
      "min": [
        -0.99947124719619751,
        -0.99973773956298828,
        -0.99929702281951904,
        -1
      ],
      "type": "VEC4"
    },
    {
      "bufferView": 1,
      "componentType": 5126,
      "count": 5322,
      "max": [
        0.99186801910400391,
        0.99183899164199829
      ],
      "min": [
        0.015529000200331211,
        0.06218700110912323
      ],
      "type": "VEC2"
    },
    {
      "bufferView": 0,
      "componentType": 5125,
      "count": 14670,
      "max": [
        5321
      ],
      "min": [
        0
      ],
      "type": "SCALAR"
    },
    {
      "bufferView": 2,
      "byteOffset": 127728,
      "componentType": 5126,
      "count": 4612,
      "max": [
        26.07142448425293,
        12.813567161560059,
        57.930130004882812
      ],
      "min": [
        -24.094120025634766,
        -15.434635162353516,
        0.046822000294923782
      ],
      "type": "VEC3"
    },
    {
      "bufferView": 2,
      "byteOffset": 183072,
      "componentType": 5126,
      "count": 4612,
      "max": [
        0.99946635961532593,
        0.99882954359054565,
        1
      ],
      "min": [
        -0.99956637620925903,
        -0.99999135732650757,
        -0.9999614953994751
      ],
      "type": "VEC3"
    },
    {
      "bufferView": 3,
      "byteOffset": 85152,
      "componentType": 5126,
      "count": 4612,
      "max": [
        0.99890148639678955,
        0.99991178512573242,
        0.99896514415740967,
        1
      ],
      "min": [
        -0.99988859891891479,
        -0.99945855140686035,
        -0.99947637319564819,
        -1
      ],
      "type": "VEC4"
    },
    {
      "bufferView": 1,
      "byteOffset": 42576,
      "componentType": 5126,
      "count": 4612,
      "max": [
        0.99137198925018311,
        0.99147200584411621
      ],
      "min": [
        0.0095990002155303955,
        0.16806100308895111
      ],
      "type": "VEC2"
    },
    {
      "bufferView": 0,
      "byteOffset": 58680,
      "componentType": 5125,
      "count": 14796,
      "max": [
        4611
      ],
      "min": [
        0
      ],
      "type": "SCALAR"
    },
    {
      "bufferView": 2,
      "byteOffset": 238416,
      "componentType": 5126,
      "count": 2708,
      "max": [
        26.164365768432617,
        12.560754776000977,
        58.039054870605469
      ],
      "min": [
        -23.992414474487305,
        -16.418119430541992,
        0.3316119909286499
      ],
      "type": "VEC3"
    },
    {
      "bufferView": 2,
      "byteOffset": 270912,
      "componentType": 5126,
      "count": 2708,
      "max": [
        0.99854254722595215,
        0.99968397617340088,
        0.99997949600219727
      ],
      "min": [
        -0.99995666742324829,
        -0.99982523918151855,
        -0.99978309869766235
      ],
      "type": "VEC3"
    },
    {
      "bufferView": 3,
      "byteOffset": 158944,
      "componentType": 5126,
      "count": 2708,
      "max": [
        0.99982917308807373,
        0.99950915575027466,
        0.99994969367980957,
        1
      ],
      "min": [
        -0.99885523319244385,
        -0.99990898370742798,
        -0.99968802928924561,
        -1
      ],
      "type": "VEC4"
    },
    {
      "bufferView": 1,
      "byteOffset": 79472,
      "componentType": 5126,
      "count": 2708,
      "max": [
        0.98871302604675293,
        0.99382001161575317
      ],
      "min": [
        0.0082909995689988136,
        0.0096490001305937767
      ],
      "type": "VEC2"
    },
    {
      "bufferView": 0,
      "byteOffset": 117864,
      "componentType": 5125,
      "count": 11904,
      "max": [
        2707
      ],
      "min": [
        0
      ],
      "type": "SCALAR"
    },
    {
      "bufferView": 2,
      "byteOffset": 303408,
      "componentType": 5126,
      "count": 2930,
      "max": [
        26.047603607177734,
        12.943471908569336,
        47.730632781982422
      ],
      "min": [
        -24.256832122802734,
        -16.224874496459961,
        0.62327200174331665
      ],
      "type": "VEC3"
    },
    {
      "bufferView": 2,
      "byteOffset": 338568,
      "componentType": 5126,
      "count": 2930,
      "max": [
        0.99991214275360107,
        0.99924951791763306,
        0.99952185153961182
      ],
      "min": [
        -0.9995577335357666,
        -0.99999421834945679,
        -0.99974465370178223
      ],
      "type": "VEC3"
    },
    {
      "bufferView": 3,
      "byteOffset": 202272,
      "componentType": 5126,
      "count": 2930,
      "max": [
        0.99980086088180542,
        0.99994909763336182,
        0.99773722887039185,
        1
      ],
      "min": [
        -0.99980008602142334,
        -0.99885523319244385,
        -0.99959331750869751,
        -1
      ],
      "type": "VEC4"
    },
    {
      "bufferView": 1,
      "byteOffset": 101136,
      "componentType": 5126,
      "count": 2930,
      "max": [
        0.99006801843643188,
        0.99807202816009521
      ],
      "min": [
        0.019124999642372131,
        0.011951000429689884
      ],
      "type": "VEC2"
    },
    {
      "bufferView": 0,
      "byteOffset": 165480,
      "componentType": 5125,
      "count": 13854,
      "max": [
        2929
      ],
      "min": [
        0
      ],
      "type": "SCALAR"
    },
    {
      "bufferView": 2,
      "byteOffset": 373728,
      "componentType": 5126,
      "count": 1166,
      "max": [
        14.225221633911133,
        5.7540807723999023,
        46.236469268798828
      ],
      "min": [
        -7.1633820533752441,
        -7.6723518371582031,
        30.685667037963867
      ],
      "type": "VEC3"
    },
    {
      "bufferView": 2,
      "byteOffset": 387720,
      "componentType": 5126,
      "count": 1166,
      "max": [
        0.99877637624740601,
        0.99790751934051514,
        0.99916821718215942
      ],
      "min": [
        -0.99973714351654053,
        -0.99800312519073486,
        -0.99557387828826904
      ],
      "type": "VEC3"
    },
    {
      "bufferView": 3,
      "byteOffset": 249152,
      "componentType": 5126,
      "count": 1166,
      "max": [
        0.99454516172409058,
        0.99167460203170776,
        0.99165427684783936,
        1
      ],
      "min": [
        -0.9947698712348938,
        -0.99226349592208862,
        -0.99526554346084595,
        -1
      ],
      "type": "VEC4"
    },
    {
      "bufferView": 1,
      "byteOffset": 124576,
      "componentType": 5126,
      "count": 1166,
      "max": [
        0.99240702390670776,
        0.48890900611877441
      ],
      "min": [
        0.35059601068496704,
        0.011909999884665012
      ],
      "type": "VEC2"
    },
    {
      "bufferView": 0,
      "byteOffset": 220896,
      "componentType": 5125,
      "count": 5142,
      "max": [
        1165
      ],
      "min": [
        0
      ],
      "type": "SCALAR"
    }
  ],
  "asset": {
    "extras": {
      "author": "Jonás (https://sketchfab.com/jonasaguilar)",
      "license": "CC-BY-4.0 (http://creativecommons.org/licenses/by/4.0/)",
      "source": "https://sketchfab.com/models/c60385a8f381473d97e188b5b4c768e3",
      "title": "Canti"
    },
    "generator": "Sketchfab-3.20.4",
    "version": "2.0"
  },
  "bufferViews": [
    {
      "buffer": 0,
      "byteLength": 241464,
      "byteOffset": 0,
      "name": "floatBufferViews",
      "target": 34963
    },
    {
      "buffer": 0,
      "byteLength": 133904,
      "byteOffset": 241464,
      "byteStride": 8,
      "name": "floatBufferViews",
      "target": 34962
    },
    {
      "buffer": 0,
      "byteLength": 401712,
      "byteOffset": 375368,
      "byteStride": 12,
      "name": "floatBufferViews",
      "target": 34962
    },
    {
      "buffer": 0,
      "byteLength": 267808,
      "byteOffset": 777080,
      "byteStride": 16,
      "name": "floatBufferViews",
      "target": 34962
    }
  ],
  "buffers": [
    {
      "byteLength": 1044888,
      "uri": "scene.bin"
    }
  ],
  "images": [
    {
      "uri": "textures/blinn1SG_baseColor.png"
    },
    {
      "uri": "textures/lambert2SG_normal.png"
    },
    {
      "uri": "textures/lambert2SG_baseColor.png"
    }
  ],
  "materials": [
    {
      "doubleSided": true,
      "emissiveFactor": [
        0,
        0,
        0
      ],
      "name": "blinn1SG",
      "pbrMetallicRoughness": {
        "baseColorFactor": [
          1,
          1,
          1,
          1
        ],
        "baseColorTexture": {
          "index": 0,
          "texCoord": 0
        },
        "metallicFactor": 0.18464176830000001,
        "roughnessFactor": 0.15072408540000004
      }
    },
    {
      "doubleSided": true,
      "emissiveFactor": [
        0,
        0,
        0
      ],
      "name": "lambert2SG",
      "normalTexture": {
        "index": 1,
        "scale": 1,
        "texCoord": 0
      },
      "pbrMetallicRoughness": {
        "baseColorFactor": [
          1,
          1,
          1,
          1
        ],
        "baseColorTexture": {
          "index": 2,
          "texCoord": 0
        },
        "metallicFactor": 0,
        "roughnessFactor": 0.56269054880000002
      }
    }
  ],
  "meshes": [
    {
      "primitives": [
        {
          "attributes": {
            "NORMAL": 1,
            "POSITION": 0,
            "TANGENT": 2,
            "TEXCOORD_0": 3
          },
          "indices": 4,
          "material": 0,
          "mode": 4
        }
      ]
    },
    {
      "primitives": [
        {
          "attributes": {
            "NORMAL": 6,
            "POSITION": 5,
            "TANGENT": 7,
            "TEXCOORD_0": 8
          },
          "indices": 9,
          "material": 0,
          "mode": 4
        }
      ]
    },
    {
      "primitives": [
        {
          "attributes": {
            "NORMAL": 11,
            "POSITION": 10,
            "TANGENT": 12,
            "TEXCOORD_0": 13
          },
          "indices": 14,
          "material": 0,
          "mode": 4
        }
      ]
    },
    {
      "primitives": [
        {
          "attributes": {
            "NORMAL": 16,
            "POSITION": 15,
            "TANGENT": 17,
            "TEXCOORD_0": 18
          },
          "indices": 19,
          "material": 0,
          "mode": 4
        }
      ]
    },
    {
      "primitives": [
        {
          "attributes": {
            "NORMAL": 21,
            "POSITION": 20,
            "TANGENT": 22,
            "TEXCOORD_0": 23
          },
          "indices": 24,
          "material": 1,
          "mode": 4
        }
      ]
    }
  ],
  "nodes": [
    {
      "children": [
        1
      ],
      "name": "RootNode (gltf orientation matrix)",
      "rotation": [
        -0.70710678118654746,
        -0,
        -0,
        0.70710678118654757
      ]
    },
    {
      "children": [
        2
      ],
      "name": "RootNode (model correction matrix)"
    },
    {
      "children": [
        3,
        4,
        5,
        6,
        7
      ],
      "name": "canti_sketchfab.obj.cleaner.materialmerger.gles"
    },
    {
      "mesh": 0,
      "name": ""
    },
    {
      "mesh": 1,
      "name": ""
    },
    {
      "mesh": 2,
      "name": ""
    },
    {
      "mesh": 3,
      "name": ""
    },
    {
      "mesh": 4,
      "name": ""
    }
  ],
  "samplers": [
    {
      "magFilter": 9729,
      "minFilter": 9987,
      "wrapS": 10497,
      "wrapT": 10497
    }
  ],
  "scene": 0,
  "scenes": [
    {
      "name": "OSG_Scene",
      "nodes": [
        0
      ]
    }
  ],
  "textures": [
    {
      "sampler": 0,
      "source": 0
    },
    {
      "sampler": 0,
      "source": 1
    },
    {
      "sampler": 0,
      "source": 2
    }
  ]
}

